<svg width="1700" height="500" viewBox="0 0 1700 500" fill="none" xmlns="http://www.w3.org/2000/svg">
<g clip-path="url(#clip0)">
<rect width="1700" height="500" fill="#FAFAFA"/>
<path d="M350 250C350 442.49 218.938 597 59 597C-100.938 597 -232 442.49 -232 250C-232 57.5104 -100.938 -97 59 -97C218.938 -97 350 57.5104 350 250Z" fill="white" stroke="#F5F5F5" stroke-width="10"/>
<path d="M641.969 228.344H668.844C665.423 203.607 643.618 186.199 615.338 186.199C582.294 186.199 556.824 210.02 556.824 250.577C556.824 290.156 580.645 314.71 615.888 314.71C647.466 314.71 670.004 294.737 670.004 261.815V246.057H617.659V265.969H644.534C644.167 281.483 633.601 291.317 616.01 291.317C596.159 291.317 583.638 276.474 583.638 250.332C583.638 224.312 596.648 209.592 615.765 209.592C629.386 209.592 638.609 216.616 641.969 228.344ZM716.134 314.771C729.999 314.771 738.978 308.724 743.559 299.99H744.292V313H768.968V249.722C768.968 227.366 750.034 217.96 729.144 217.96C706.667 217.96 691.886 228.71 688.282 245.812L712.347 247.767C714.119 241.537 719.677 236.956 729.022 236.956C737.879 236.956 742.948 241.415 742.948 249.111V249.477C742.948 255.524 736.535 256.318 720.227 257.906C701.659 259.616 684.984 265.847 684.984 286.797C684.984 305.365 698.238 314.771 716.134 314.771ZM723.586 296.814C715.585 296.814 709.843 293.088 709.843 285.942C709.843 278.612 715.89 275.009 725.052 273.726C730.732 272.932 740.017 271.588 743.132 269.511V279.467C743.132 289.301 735.008 296.814 723.586 296.814ZM788.666 313H867.52V292.233H822.81V291.561L865.932 236.101V219.182H790.254V239.949H834.598V240.621L788.666 297.486V313ZM927.485 314.832C950.695 314.832 966.331 303.533 969.996 286.125L945.931 284.537C943.305 291.683 936.586 295.409 927.912 295.409C914.903 295.409 906.657 286.797 906.657 272.81V272.749H970.546V265.602C970.546 233.719 951.245 217.96 926.447 217.96C898.839 217.96 880.942 237.567 880.942 266.518C880.942 296.264 898.594 314.832 927.485 314.832ZM906.657 256.624C907.206 245.935 915.33 237.384 926.874 237.384C938.174 237.384 945.992 245.446 946.053 256.624H906.657ZM1098.39 231.703C1094.9 202.812 1073.04 186.199 1044.09 186.199C1011.04 186.199 985.816 209.531 985.816 250.455C985.816 291.256 1010.61 314.71 1044.09 314.71C1076.15 314.71 1095.51 293.393 1098.39 270.366L1071.63 270.244C1069.13 283.621 1058.62 291.317 1044.51 291.317C1025.52 291.317 1012.63 277.207 1012.63 250.455C1012.63 224.435 1025.33 209.592 1044.7 209.592C1059.17 209.592 1069.62 217.96 1071.63 231.703H1098.39ZM1142.88 187.909H1116.86V313H1142.88V187.909ZM1163.73 313H1189.75V219.182H1163.73V313ZM1176.8 207.088C1184.55 207.088 1190.91 201.163 1190.91 193.895C1190.91 186.688 1184.55 180.763 1176.8 180.763C1169.1 180.763 1162.75 186.688 1162.75 193.895C1162.75 201.163 1169.1 207.088 1176.8 207.088ZM1253.34 314.832C1276.55 314.832 1292.19 303.533 1295.86 286.125L1271.79 284.537C1269.16 291.683 1262.45 295.409 1253.77 295.409C1240.76 295.409 1232.52 286.797 1232.52 272.81V272.749H1296.41V265.602C1296.41 233.719 1277.1 217.96 1252.31 217.96C1224.7 217.96 1206.8 237.567 1206.8 266.518C1206.8 296.264 1224.45 314.832 1253.34 314.832ZM1232.52 256.624C1233.07 245.935 1241.19 237.384 1252.73 237.384C1264.03 237.384 1271.85 245.446 1271.91 256.624H1232.52ZM1339.41 258.761C1339.47 246.668 1346.67 239.582 1357.18 239.582C1367.62 239.582 1373.92 246.423 1373.85 257.906V313H1399.87V253.264C1399.87 231.398 1387.05 217.96 1367.5 217.96C1353.58 217.96 1343.5 224.801 1339.28 235.734H1338.18V219.182H1313.39V313H1339.41V258.761ZM1470.28 219.182H1452.63V196.705H1426.61V219.182H1413.78V238.727H1426.61V287.591C1426.49 305.976 1439.01 315.077 1457.88 314.283C1464.6 314.038 1469.37 312.695 1471.99 311.839L1467.9 292.477C1466.62 292.722 1463.87 293.332 1461.43 293.332C1456.24 293.332 1452.63 291.378 1452.63 284.17V238.727H1470.28V219.182Z" fill="#525252"/>
<path d="M266.048 182.331C272.46 177.01 273.404 167.416 267.326 161.717C253.695 148.935 237.228 139.444 219.187 134.077C196.306 127.269 171.92 127.399 149.112 134.451C126.305 141.502 106.101 155.159 91.0555 173.693C79.1922 188.307 70.9558 205.435 66.9174 223.679C65.1165 231.815 71.3105 239.202 79.6073 239.975C87.9041 240.747 95.1329 234.59 97.2712 226.536C100.54 214.226 106.384 202.687 114.483 192.711C125.767 178.81 140.92 168.568 158.026 163.279C175.131 157.991 193.421 157.893 210.582 162.999C222.898 166.663 234.235 172.89 243.881 181.207C250.192 186.648 259.635 187.651 266.048 182.331Z" fill="#3B82F6"/>
<path d="M79.4841 258.126C71.1776 258.786 64.8837 266.088 66.5738 274.248C70.3639 292.545 78.3667 309.784 90.0302 324.558C104.823 343.295 124.839 357.225 147.548 364.586C170.258 371.946 194.64 372.408 217.611 365.912C235.724 360.79 252.318 351.524 266.121 338.929C272.277 333.313 271.464 323.707 265.124 318.299C258.784 312.892 249.328 313.767 242.944 319.122C233.186 327.307 221.765 333.379 209.4 336.875C192.171 341.747 173.885 341.401 156.853 335.881C139.821 330.36 124.809 319.913 113.714 305.86C105.752 295.774 100.064 284.157 96.9637 271.804C94.9351 263.722 87.7906 257.467 79.4841 258.126Z" fill="#14B8A6"/>
</g>
<defs>
<clipPath id="clip0">
<rect width="1700" height="500" fill="white"/>
</clipPath>
</defs>
</svg>